# xmcd
#
# Track frame offsets:
# 150
# 31645
# 46622
# 69822
# 88331
# 108862
# 130367
# 145885
# 162780
# 184103
# 202832
# 220845
# 237721
# 256241
# 274126
# 294268
#
# Disc length: 4128 seconds
#
#
# Revision: 4
# Processed by: cddbd v1.4PL0 Copyright (c) Steve Scherf et al.
# Submitted via: FreeRIP 2.12 
#
DISCID=dd101e10
DTITLE=Olsen Brothers - Wings Of Love
DYEAR=2000
DGENRE=Folklore
TTITLE0=Fly On The Wings Of Love
TTITLE1=Xtm and Dj Chucky pers. Annia - Fly On The Wings Of Love
TTITLE2=Atlantic Wave - Black Mind Confession
TTITLE3=K-Traxx - Propulse
TTITLE4=Marco Cordi - Voo Doo
TTITLE5=Dj Gius - Puffganger
TTITLE6=Droid - Krapri Porn
TTITLE7=Arseniko - Ragga Style
TTITLE8=Dark Oscillators - Nasty Dynamo
TTITLE9=Dj Anger - Pussy Dynamo
TTITLE10=Tuneboy - Dirty
TTITLE11=Traum - Seephone
TTITLE12=Postman - Super Bass Kick
TTITLE13=Timescape - The Ultimate Sad Action
TTITLE14=Step Ahead - Detonator
TTITLE15=Kamasutra - Rock'n Beat
EXTD=YEAR: 2000
EXTT0=
EXTT1=
EXTT2=
EXTT3=
EXTT4=
EXTT5=
EXTT6=
EXTT7=
EXTT8=
EXTT9=
EXTT10=
EXTT11=
EXTT12=
EXTT13=
EXTT14=
EXTT15=
PLAYORDER=
